{
  "accessors": [
    {
      "bufferView": 2,
      "componentType": 5126,
      "count": 4953,
      "max": [
        1.953508973121643,
        10.899643898010254,
        10.587564468383789
      ],
      "min": [
        -1.953508973121643,
        -3.3990683555603027,
        -11.812888145446777
      ],
      "type": "VEC3"
    },
    {
      "bufferView": 2,
      "byteOffset": 59436,
      "componentType": 5126,
      "count": 4953,
      "max": [
        1.0,
        1.0,
        1.0
      ],
      "min": [
        -1.0,
        -1.0,
        -1.0
      ],
      "type": "VEC3"
    },
    {
      "bufferView": 1,
      "componentType": 5126,
      "count": 4953,
      "max": [
        0.8750000596046448,
        1.0
      ],
      "min": [
        0.125,
        0.0
      ],
      "type": "VEC2"
    },
    {
      "bufferView": 0,
      "componentType": 5125,
      "count": 11754,
      "type": "SCALAR"
    },
    {
      "bufferView": 2,
      "byteOffset": 118872,
      "componentType": 5126,
      "count": 136,
      "max": [
        0.05496114864945412,
        8.090742111206055,
        0.6707916855812073
      ],
      "min": [
        -0.7753018140792847,
        -0.6707916855812073,
        -7.7019572257995605
      ],
      "type": "VEC3"
    },
    {
      "bufferView": 2,
      "byteOffset": 120504,
      "componentType": 5126,
      "count": 136,
      "max": [
        0.998225748538971,
        0.6373791694641113,
        1.0
      ],
      "min": [
        -0.9970025420188904,
        -1.0,
        -0.9999740719795227
      ],
      "type": "VEC3"
    },
    {
      "bufferView": 1,
      "byteOffset": 39624,
      "componentType": 5126,
      "count": 136,
      "max": [
        0.875,
        1.0
      ],
      "min": [
        0.125,
        0.0
      ],
      "type": "VEC2"
    },
    {
      "bufferView": 0,
      "byteOffset": 47016,
      "componentType": 5125,
      "count": 204,
      "type": "SCALAR"
    }
  ],
  "asset": {
    "extras": {
      "author": "Mitro123 (https://sketchfab.com/Mitro123)",
      "license": "CC-BY-4.0 (http://creativecommons.org/licenses/by/4.0/)",
      "source": "https://sketchfab.com/3d-models/pirate-lotr-ship-6a06f52061d84ff9951ee57c7c5332be",
      "title": "Pirate Lotr Ship"
    },
    "generator": "Sketchfab-12.67.0",
    "version": "2.0"
  },
  "bufferViews": [
    {
      "buffer": 0,
      "byteLength": 47832,
      "name": "floatBufferViews",
      "target": 34963
    },
    {
      "buffer": 0,
      "byteLength": 40712,
      "byteOffset": 47832,
      "byteStride": 8,
      "name": "floatBufferViews",
      "target": 34962
    },
    {
      "buffer": 0,
      "byteLength": 122136,
      "byteOffset": 88544,
      "byteStride": 12,
      "name": "floatBufferViews",
      "target": 34962
    }
  ],
  "buffers": [
    {
      "byteLength": 210680,
      "uri": "scene.bin"
    }
  ],
  "materials": [
    {
      "doubleSided": true,
      "name": "Material",
      "pbrMetallicRoughness": {
        "baseColorFactor": [
          0.199921,
          0.0984296,
          0.0381415,
          1.0
        ],
        "metallicFactor": 0.0,
        "roughnessFactor": 0.4
      }
    },
    {
      "doubleSided": true,
      "name": "Material.001",
      "pbrMetallicRoughness": {
        "baseColorFactor": [
          0.112096,
          0.112096,
          0.112096,
          1.0
        ],
        "metallicFactor": 0.0,
        "roughnessFactor": 0.5
      }
    }
  ],
  "meshes": [
    {
      "name": "Object_0",
      "primitives": [
        {
          "attributes": {
            "NORMAL": 1,
            "POSITION": 0,
            "TEXCOORD_0": 2
          },
          "indices": 3,
          "material": 0,
          "mode": 4
        }
      ]
    },
    {
      "name": "Object_1",
      "primitives": [
        {
          "attributes": {
            "NORMAL": 5,
            "POSITION": 4,
            "TEXCOORD_0": 6
          },
          "indices": 7,
          "material": 1,
          "mode": 4
        }
      ]
    }
  ],
  "nodes": [
    {
      "children": [
        1
      ],
      "matrix": [
        1.0,
        0.0,
        0.0,
        0.0,
        0.0,
        2.220446049250313e-16,
        -1.0,
        0.0,
        0.0,
        1.0,
        2.220446049250313e-16,
        0.0,
        0.0,
        0.0,
        0.0,
        1.0
      ],
      "name": "Sketchfab_model"
    },
    {
      "children": [
        2
      ],
      "name": "root"
    },
    {
      "children": [
        3,
        5
      ],
      "matrix": [
        1.0,
        0.0,
        0.0,
        0.0,
        0.0,
        2.220446049250313e-16,
        1.0,
        0.0,
        0.0,
        -1.0,
        2.220446049250313e-16,
        0.0,
        0.0,
        0.0,
        0.0,
        1.0
      ],
      "name": "GLTF_SceneRootNode"
    },
    {
      "children": [
        4
      ],
      "name": "Cube_0"
    },
    {
      "mesh": 0,
      "name": "Object_4"
    },
    {
      "children": [
        6
      ],
      "matrix": [
        0.8949410995823841,
        0.11457734113805824,
        0.27172587399868364,
        0.0,
        -0.08931736672105806,
        0.9327776903508659,
        -0.09914920817693278,
        0.0,
        -0.2810432790432264,
        0.06841193339453916,
        0.8967814516916564,
        0.0,
        -0.33151304721832275,
        3.478262424468994,
        0.38418394327163696,
        1.0
      ],
      "name": "Cube.001_3"
    },
    {
      "mesh": 1,
      "name": "Object_6"
    }
  ],
  "scene": 0,
  "scenes": [
    {
      "name": "Sketchfab_Scene",
      "nodes": [
        0
      ]
    }
  ]
}
